HIERARCHY
ROOT SimulationBone
{
	OFFSET 0.000000 0.000000 0.000000
	CHANNELS 6 Xposition Yposition Zposition Zrotation Yrotation Xrotation 
	JOINT Hips
	{
		OFFSET 0.000000 0.000000 0.000000
		CHANNELS 6 Xposition Yposition Zposition Zrotation Yrotation Xrotation 
		JOINT RightUpLeg
		{
			OFFSET 0.103458 1.857835 10.548497
			CHANNELS 3 Zrotation Yrotation Xrotation
			JOINT RightLeg
			{
				OFFSET 43.500000 -0.000034 -0.000013
				CHANNELS 3 Zrotation Yrotation Xrotation
				JOINT RightFoot
				{
					OFFSET 42.372192 0.000011 0.000010
					CHANNELS 3 Zrotation Yrotation Xrotation
					JOINT RightToe
					{
						OFFSET 17.299994 -0.000002 -0.000009
						CHANNELS 3 Zrotation Yrotation Xrotation
						End Site
						{
							OFFSET 0.000000 0.000000 0.000000
						}
					}
				}
			}
		}
		JOINT LeftUpLeg
		{
			OFFSET 0.103456 1.857832 -10.548508
			CHANNELS 3 Zrotation Yrotation Xrotation
			JOINT LeftLeg
			{
				OFFSET 43.500038 -0.000027 0.000004
				CHANNELS 3 Zrotation Yrotation Xrotation
				JOINT LeftFoot
				{
					OFFSET 42.372261 -0.000011 0.000014
					CHANNELS 3 Zrotation Yrotation Xrotation
					JOINT LeftToe
					{
						OFFSET 17.299995 -0.000004 0.000011
						CHANNELS 3 Zrotation Yrotation Xrotation
						End Site
						{
							OFFSET 0.000000 0.000000 0.000000
						}
					}
				}
			}
		}
		JOINT Spine
		{
			OFFSET 6.901970 -2.603727 -0.000002
			CHANNELS 3 Zrotation Yrotation Xrotation
			JOINT Spine1
			{
				OFFSET 12.588097 -0.000001 0.000008
				CHANNELS 3 Zrotation Yrotation Xrotation
				JOINT Spine2
				{
					OFFSET 12.343203 0.000000 -0.000005
					CHANNELS 3 Zrotation Yrotation Xrotation
					JOINT Neck
					{
						OFFSET 25.832903 -0.000002 -0.000005
						CHANNELS 3 Zrotation Yrotation Xrotation
						JOINT Head
						{
							OFFSET 11.766603 0.000011 -0.000000
							CHANNELS 3 Zrotation Yrotation Xrotation
							End Site
							{
								OFFSET 0.000000 0.000000 0.000000
							}
						}
					}
					JOINT RightShoulder
					{
						OFFSET 19.745899 -1.480377 6.000100
						CHANNELS 3 Zrotation Yrotation Xrotation
						JOINT RightArm
						{
							OFFSET 11.284134 -0.000021 -0.000017
							CHANNELS 3 Zrotation Yrotation Xrotation
							JOINT RightForeArm
							{
								OFFSET 33.000053 0.000002 0.000032
								CHANNELS 3 Zrotation Yrotation Xrotation
								JOINT RightHand
								{
									OFFSET 25.200005 0.000020 0.000008
									CHANNELS 3 Zrotation Yrotation Xrotation
									End Site
									{
										OFFSET 0.000000 0.000000 0.000000
									}
								}
							}
						}
					}
					JOINT LeftShoulder
					{
						OFFSET 19.746092 -1.480377 -6.000073
						CHANNELS 3 Zrotation Yrotation Xrotation
						JOINT LeftArm
						{
							OFFSET 11.284133 -0.000016 -0.000019
							CHANNELS 3 Zrotation Yrotation Xrotation
							JOINT LeftForeArm
							{
								OFFSET 33.000092 0.000022 0.000006
								CHANNELS 3 Zrotation Yrotation Xrotation
								JOINT LeftHand
								{
									OFFSET 25.199783 0.000138 0.000434
									CHANNELS 3 Zrotation Yrotation Xrotation
									End Site
									{
										OFFSET 0.000000 0.000000 0.000000
									}
								}
							}
						}
					}
				}
			}
		}
	}
}
MOTION
Frames: 9
Frame Time: 0.033333
-362.567383 0.000000 -448.646732 180.000000 -6.474214 180.000000 -3.459574 72.195190 2.727460 95.939487 3.746374 179.807990 135.999558 -29.659502 -160.606052 -46.977928 2.292747 5.730626 72.042458 -13.084500 -26.495953 21.454558 0.003109 0.000018 142.854499 26.957705 159.000616 -58.909733 2.853293 -12.894210 83.526916 15.125790 26.769055 21.454557 -0.003092 0.000000 14.868610 -1.925560 1.951192 19.672535 -4.154683 3.548231 19.354169 -4.133329 3.573235 -3.628474 -10.721246 -2.997070 -40.966238 12.859520 -13.570348 162.266197 -72.495225 16.830971 5.627260 47.024903 44.368615 -31.030888 -19.111680 1.539539 8.218209 -2.245470 2.444478 153.647906 85.647560 -24.881628 -39.789431 -39.421253 18.545528 -68.954434 18.868562 -2.719746 -8.874355 18.873976 -15.646601 
-363.958081 0.000000 -452.289788 180.000000 -7.712632 180.000000 -4.235158 73.789207 3.565074 95.350943 2.611635 -179.275226 140.954136 -30.086106 -159.027158 -35.902937 1.322398 2.982065 64.386704 -12.710448 -25.651624 21.454555 0.003110 0.000018 142.963195 26.486603 164.129295 -61.948033 1.577285 -13.010088 84.885386 14.242173 23.885971 21.454557 -0.003092 0.000000 14.869619 -1.885436 1.892389 19.677372 -4.065093 3.438076 19.359019 -4.044396 3.462543 -2.867711 -11.156250 -3.260824 -40.953818 12.463879 -13.610182 163.778101 -72.497001 15.281556 7.084411 49.060163 43.429737 -31.399831 -19.127699 1.548250 7.882432 -3.981004 1.156252 150.024408 85.914907 -28.508354 -44.168631 -38.055198 19.500994 -69.240305 19.030804 -2.743140 -9.867782 17.496354 -17.891781 
-365.041498 0.000000 -455.905414 180.000000 -9.025026 180.000000 -4.983782 75.282303 3.991301 94.693388 0.961485 -178.539467 144.578125 -29.146504 -159.724561 -27.751846 0.503237 -2.054860 55.626584 -10.723888 -24.668727 21.454557 0.003108 0.000018 142.199607 27.438601 169.333422 -65.021946 1.102117 -12.908321 84.898862 13.181472 19.376560 21.454553 -0.003093 0.000000 14.806173 -1.860977 1.798322 19.554145 -3.998965 3.257621 19.235775 -3.979367 3.281701 -2.243029 -12.026243 -3.723970 -40.434115 12.631441 -14.224389 165.271385 -72.215351 13.762501 8.292156 51.238016 40.726188 -33.516165 -19.559620 1.621993 7.763944 -6.101875 3.452296 141.879503 86.467367 -36.651758 -47.783327 -36.625810 18.199748 -68.145036 19.555364 -2.734777 -10.806380 16.766210 -19.312220 
-365.836113 0.000000 -459.516591 180.000000 -10.410667 180.000000 -5.522680 76.477882 4.025222 94.532700 -0.411839 -177.677747 145.207499 -27.875305 -166.716981 -28.136394 -0.712105 -5.023065 53.561657 -8.384097 -23.590597 21.454557 0.003111 0.000017 142.333943 28.590697 173.466519 -67.177670 1.354378 -12.974080 84.885892 12.430491 15.771930 21.454555 -0.003092 0.000000 14.718959 -1.701939 1.727461 19.384270 -3.669125 3.146430 19.065978 -3.650200 3.168510 -1.093261 -11.347065 -4.238029 -39.987448 11.857099 -13.952780 165.697807 -72.204006 13.325645 9.737819 53.779158 39.401159 -36.840193 -20.873953 1.786032 7.703527 -7.013983 5.576115 142.990147 86.402392 -35.541617 -49.649417 -34.982508 15.414200 -66.825949 19.712189 -2.691538 -11.555504 15.058055 -21.276282 
-366.354681 0.000000 -463.129030 180.000000 -11.825102 180.000000 -5.765605 77.401314 3.528932 95.076944 -0.955772 -177.275958 144.322689 -26.933304 -177.667769 -35.014299 1.591887 -2.442423 57.581917 -7.814787 -20.273579 21.454558 0.003106 0.000017 143.657088 28.626802 177.049459 -68.456718 1.567915 -12.471831 85.215018 11.406480 12.962119 21.454555 -0.003092 0.000000 14.725618 -1.330793 1.809813 19.401173 -2.946171 3.371525 19.083222 -2.925904 3.389226 -0.886446 -11.695373 -4.731989 -38.882211 11.862569 -14.340488 166.732117 -71.818736 12.279762 9.013661 55.606612 39.253275 -39.320303 -22.043242 1.926840 7.056621 -7.772390 5.757802 142.059684 86.463597 -36.471206 -50.010338 -33.854734 11.993604 -66.398851 20.130804 -2.703639 -11.830222 12.776887 -23.593116 
-366.597983 0.000000 -466.730860 180.000000 -13.245561 180.000000 -5.790403 78.457291 2.898332 95.420897 -1.048199 -177.565796 143.461785 -25.895202 178.429799 -41.288138 2.997421 -2.260463 60.248737 -6.769212 -18.807807 21.454558 0.003106 0.000018 145.281785 27.503299 -179.501087 -68.476867 1.753913 -11.172131 85.855676 9.798847 10.058931 21.454550 -0.003091 0.000000 14.623343 -1.014250 1.969635 19.199375 -2.341313 3.744054 18.881727 -2.318808 3.758088 -0.941735 -11.405434 -5.201394 -37.978123 11.318674 -14.316450 166.718620 -72.070954 12.283584 7.203634 57.157567 38.573469 -41.302693 -22.481660 2.010559 6.689106 -8.949334 8.545538 143.096711 86.094248 -35.455696 -49.625060 -33.343713 8.593810 -65.529258 20.567238 -2.699039 -11.048455 10.797006 -24.817294 
-366.581092 0.000000 -470.270514 180.000000 -14.659191 180.000000 -5.619074 79.653519 2.332086 95.792549 -1.279420 -177.968553 143.569784 -24.647796 178.725983 -45.702210 1.806749 -2.859072 62.508682 -5.514229 -17.986038 21.454555 0.003120 0.000019 147.201368 26.038501 -176.476911 -67.475664 1.731315 -9.830430 86.698637 8.308603 7.722282 21.454557 -0.003094 0.000000 14.474002 -0.810096 1.984108 18.905544 -1.933598 3.809382 18.588015 -1.910708 3.820953 -0.509281 -11.244851 -5.377816 -37.361254 10.894083 -14.085792 165.662714 -72.115897 13.365202 5.522951 57.722817 37.499043 -43.078061 -22.990260 2.095784 6.185177 -9.316934 13.981145 144.017230 86.075492 -34.532490 -49.761114 -33.888957 5.544285 -63.587429 20.965921 -2.648872 -9.198589 9.681108 -24.022716 
-366.305427 0.000000 -473.675870 180.000000 -16.087130 180.000000 -5.289417 80.810204 1.708959 96.142641 -1.513157 -178.453991 144.237859 -23.242488 178.330720 -50.132431 0.439736 -2.108431 66.619664 -4.919923 -16.976411 21.454557 0.003107 0.000018 148.752340 24.677598 -174.628594 -66.157451 2.095182 -8.976050 86.718097 7.335268 5.873666 21.454558 -0.003093 0.000000 14.310499 -0.670557 1.899436 18.583698 -1.637620 3.666567 18.266173 -1.615593 3.676355 -0.545501 -10.931291 -5.405625 -36.411971 10.317568 -13.590599 164.742592 -72.284397 14.301862 3.264176 57.713528 34.840908 -44.434779 -23.052382 2.140761 6.059095 -9.986516 16.897630 144.802688 86.208524 -33.734984 -50.340912 -35.156015 3.080592 -60.342993 21.430970 -2.553925 -7.506199 9.086868 -22.247220 
-365.818236 0.000000 -476.879842 180.000000 -17.440219 180.000000 -4.840271 82.015419 1.041450 96.528494 -1.517681 -179.242166 145.944818 -21.608198 176.157313 -54.315901 -0.149184 -2.333464 71.187647 -4.016531 -17.068704 21.454555 0.003113 0.000019 149.904880 23.092695 -173.543919 -64.617278 2.565659 -8.186159 85.453904 6.566130 4.479013 21.454551 -0.003092 0.000000 14.111638 -0.530094 1.788772 18.191355 -1.334978 3.471908 17.873804 -1.314135 3.479879 -0.372689 -10.774121 -5.155367 -35.840342 9.682615 -12.843948 164.631888 -72.136859 14.421704 1.228863 56.931133 33.268253 -45.286815 -23.905640 2.224268 6.745016 -11.251488 13.855630 140.095062 86.192445 -38.462312 -50.480593 -37.035727 0.785065 -56.022482 21.724185 -2.411582 -5.773831 9.328673 -19.928380 
